<svg version="1.1" id="Layer_1" xmlns="http://www.w3.org/2000/svg" xmlns:xlink="http://www.w3.org/1999/xlink" x="0px" y="0px"
	 width="100%" viewBox="0 0 500 500" enable-background="new 0 0 315 308" xml:space="preserve">
<path fill="#FEFEFE" opacity="1.000000" stroke="none" 
	d="
M130.000000,0.999999 
	C148.687561,1.000000 167.375122,1.000000 186.231506,1.352217 
	C187.226807,2.134638 188.008316,2.763725 188.887161,2.962474 
	C194.220963,4.168695 199.709854,4.854209 204.903595,6.487507 
	C234.558945,15.813383 260.092590,31.424707 280.199982,55.584824 
	C296.896606,75.646729 308.182770,98.131142 313.099854,123.810310 
	C313.515137,125.979134 315.007843,127.941643 316.000000,130.000000 
	C316.000000,146.354233 316.000000,162.708450 315.647766,179.231506 
	C314.865356,180.226807 314.236298,181.008331 314.037567,181.887161 
	C312.831329,187.220963 312.145813,192.709854 310.512543,197.903580 
	C301.186584,227.558914 285.575317,253.092529 261.415192,273.199921 
	C241.353256,289.896576 218.868881,301.182770 193.189682,306.099884 
	C191.020874,306.515137 189.058365,308.007843 187.000000,309.000000 
	C168.312439,309.000000 149.624878,309.000000 130.768494,308.647797 
	C129.773193,307.865387 128.991699,307.236298 128.112885,307.037537 
	C122.779068,305.831329 117.290192,305.145782 112.096451,303.512482 
	C82.441086,294.186646 56.907486,278.575287 36.800064,254.415192 
	C20.103395,234.353287 8.817220,211.868896 3.900140,186.189697 
	C3.484848,184.020874 1.992158,182.058365 1.000001,180.000000 
	C1.000000,163.645767 1.000000,147.291550 1.352218,130.768494 
	C2.134640,129.773224 2.763731,128.991745 2.962470,128.112930 
	C4.168678,122.779114 4.854170,117.290222 6.487476,112.096489 
	C15.813388,82.441132 31.424667,56.907471 55.584785,36.800053 
	C75.646706,20.103386 98.131111,8.817213 123.810303,3.900139 
	C125.979118,3.484851 127.941643,1.992156 130.000000,0.999999 
M250.752167,182.195480 
	C252.481247,173.891815 254.327118,165.610352 255.909790,157.278870 
	C257.880554,146.904205 255.024933,143.362411 244.468109,143.314117 
	C210.818161,143.160156 177.167709,143.088364 143.517380,143.066788 
	C120.028954,143.051727 96.540390,143.159439 73.051964,143.235062 
	C60.630032,143.275055 57.700325,147.028900 60.332809,159.264130 
	C66.173721,186.411407 72.037300,213.554092 77.758011,240.726791 
	C79.609802,249.522552 81.462646,251.408966 90.344330,251.433624 
	C110.835342,251.490509 131.326645,251.448242 151.817841,251.434875 
	C176.973633,251.418472 202.129547,251.424271 227.285156,251.343292 
	C233.377777,251.323685 236.736633,248.765137 237.838028,243.549316 
	C242.098007,223.375839 246.309952,203.192200 250.752167,182.195480 
M145.130295,115.492867 
	C159.406967,121.574913 171.836563,118.982430 181.752228,106.864616 
	C194.225143,91.621582 198.525116,73.664299 195.675278,54.462135 
	C193.027512,36.621494 178.757874,24.275211 160.480850,22.258846 
	C145.871002,20.647053 129.881119,30.797243 123.243462,45.820122 
	C119.100746,55.196239 119.223282,64.909607 120.905586,74.717361 
	C123.716782,91.106613 129.484619,105.819275 145.130295,115.492867 
M172.499969,262.060303 
	C192.989716,262.059204 213.479462,262.060364 233.969208,262.052490 
	C235.466980,262.051910 237.212784,262.454895 238.397995,261.828186 
	C239.793686,261.090149 241.368393,259.541656 241.596832,258.138092 
	C241.756470,257.157288 239.976944,255.504166 238.706924,254.759521 
	C237.678452,254.156494 236.118393,254.373459 234.794159,254.373962 
	C183.654282,254.393600 132.514420,254.429520 81.374550,254.468887 
	C80.210182,254.469772 78.809120,254.138855 77.935722,254.660873 
	C76.544945,255.492111 74.365654,257.185730 74.566864,258.022308 
	C74.930443,259.533997 76.604332,261.059875 78.112808,261.861237 
	C79.290169,262.486725 81.045853,262.041107 82.544563,262.041534 
	C112.196365,262.050262 141.848175,262.054626 172.499969,262.060303 
M181.611130,140.304123 
	C197.158325,140.304123 212.705536,140.304123 228.429688,140.304123 
	C224.148880,126.859123 203.465744,112.855034 189.873703,113.370773 
	C187.254211,118.076485 184.905197,122.624184 182.245209,126.982094 
	C179.611710,131.296631 176.664520,135.419678 173.404175,140.301666 
	C176.407852,140.301666 178.528915,140.301666 181.611130,140.304123 
M138.507797,135.120956 
	C134.423508,127.914185 130.339203,120.707420 126.134789,113.288696 
	C110.950478,113.943428 91.665504,127.271065 88.179382,139.997498 
	C105.750488,139.997498 123.273979,139.997498 141.469116,139.997498 
	C140.408707,138.232803 139.667267,136.998932 138.507797,135.120956 
M167.533844,125.449707 
	C167.434128,125.159683 167.321136,124.611992 167.236572,124.616348 
	C160.582794,124.959160 153.931244,125.345192 147.469070,125.717064 
	C149.473984,129.788101 151.856567,134.626022 154.572067,140.139954 
	C156.070602,140.139954 158.835480,140.139954 161.600357,140.139954 
	C161.180756,139.802032 160.761154,139.464111 160.341553,139.126175 
	C162.167542,135.826996 164.005539,132.534378 165.812271,129.224686 
	C166.362747,128.216278 166.827164,127.160889 167.533844,125.449707 
z"/>
<path fill="#000000" opacity="1.000000" stroke="none" 
	d="
M129.531342,0.999999 
	C127.941643,1.992156 125.979118,3.484851 123.810303,3.900139 
	C98.131111,8.817213 75.646706,20.103386 55.584785,36.800053 
	C31.424667,56.907471 15.813388,82.441132 6.487476,112.096489 
	C4.854170,117.290222 4.168678,122.779114 2.962470,128.112930 
	C2.763731,128.991745 2.134640,129.773224 1.352218,130.299835 
	C1.000000,87.073021 1.000000,44.146034 1.000000,1.000000 
	C43.687313,1.000000 86.375000,1.000000 129.531342,0.999999 
z"/>
<path fill="#000000" opacity="1.000000" stroke="none" 
	d="
M316.000000,129.531342 
	C315.007843,127.941643 313.515137,125.979134 313.099854,123.810310 
	C308.182770,98.131142 296.896606,75.646729 280.199982,55.584824 
	C260.092590,31.424707 234.558945,15.813383 204.903595,6.487507 
	C199.709854,4.854209 194.220963,4.168695 188.887161,2.962474 
	C188.008316,2.763725 187.226807,2.134638 186.700165,1.352217 
	C229.926971,1.000000 272.853943,1.000000 316.000000,1.000000 
	C316.000000,43.687313 316.000000,86.375000 316.000000,129.531342 
z"/>
<path fill="#000000" opacity="1.000000" stroke="none" 
	d="
M1.000001,180.468658 
	C1.992158,182.058365 3.484848,184.020874 3.900140,186.189697 
	C8.817220,211.868896 20.103395,234.353287 36.800064,254.415192 
	C56.907486,278.575287 82.441086,294.186646 112.096451,303.512482 
	C117.290192,305.145782 122.779068,305.831329 128.112885,307.037537 
	C128.991699,307.236298 129.773193,307.865387 130.299835,308.647797 
	C87.073029,309.000000 44.146053,309.000000 1.000000,309.000000 
	C1.000000,266.312683 1.000000,223.625000 1.000001,180.468658 
z"/>
<path fill="#000000" opacity="1.000000" stroke="none" 
	d="
M187.468658,309.000000 
	C189.058365,308.007843 191.020874,306.515137 193.189682,306.099884 
	C218.868881,301.182770 241.353256,289.896576 261.415192,273.199921 
	C285.575317,253.092529 301.186584,227.558914 310.512543,197.903580 
	C312.145813,192.709854 312.831329,187.220963 314.037567,181.887161 
	C314.236298,181.008331 314.865356,180.226807 315.647766,179.700165 
	C316.000000,222.926971 316.000000,265.853943 316.000000,309.000000 
	C273.312683,309.000000 230.625000,309.000000 187.468658,309.000000 
z"/>
<path fill="#020202" opacity="1.000000" stroke="none" 
	d="
M250.645996,182.603912 
	C246.309952,203.192200 242.098007,223.375839 237.838028,243.549316 
	C236.736633,248.765137 233.377777,251.323685 227.285156,251.343292 
	C202.129547,251.424271 176.973633,251.418472 151.817841,251.434875 
	C131.326645,251.448242 110.835342,251.490509 90.344330,251.433624 
	C81.462646,251.408966 79.609802,249.522552 77.758011,240.726791 
	C72.037300,213.554092 66.173721,186.411407 60.332809,159.264130 
	C57.700325,147.028900 60.630032,143.275055 73.051964,143.235062 
	C96.540390,143.159439 120.028954,143.051727 143.517380,143.066788 
	C177.167709,143.088364 210.818161,143.160156 244.468109,143.314117 
	C255.024933,143.362411 257.880554,146.904205 255.909790,157.278870 
	C254.327118,165.610352 252.481247,173.891815 250.645996,182.603912 
M165.470367,206.907242 
	C166.589584,202.123520 167.708801,197.339813 169.000412,191.819305 
	C164.706009,191.819305 161.971939,191.819305 159.432678,191.819305 
	C159.432678,183.752777 159.432678,176.106888 159.432678,168.461014 
	C156.220825,179.588120 147.788193,189.160812 149.134155,202.122299 
	C152.297501,202.122299 155.049423,202.122299 157.736191,202.122299 
	C157.736191,210.120575 157.736191,217.741653 157.736191,226.682007 
	C160.504410,219.577805 162.831146,213.606598 165.470367,206.907242 
z"/>
<path fill="#0A0A0A" opacity="1.000000" stroke="none" 
	d="
M144.807587,115.305084 
	C129.484619,105.819275 123.716782,91.106613 120.905586,74.717361 
	C119.223282,64.909607 119.100746,55.196239 123.243462,45.820122 
	C129.881119,30.797243 145.871002,20.647053 160.480850,22.258846 
	C178.757874,24.275211 193.027512,36.621494 195.675278,54.462135 
	C198.525116,73.664299 194.225143,91.621582 181.752228,106.864616 
	C171.836563,118.982430 159.406967,121.574913 144.807587,115.305084 
M129.270370,90.025208 
	C133.585938,95.855576 137.162521,102.480591 142.384262,107.336510 
	C150.957886,115.309486 163.639221,115.485214 172.737442,108.510231 
	C186.887894,97.662079 191.555649,82.410103 192.275314,64.612984 
	C190.368927,66.156036 189.105286,67.178856 188.611298,67.578690 
	C185.619507,60.482353 182.719238,53.603092 179.681778,46.398449 
	C165.540894,55.385376 152.011414,53.173336 138.454041,48.388042 
	C133.150208,46.515965 130.973969,47.168594 130.084351,52.653893 
	C129.188614,58.177032 129.389984,63.877087 129.077652,69.497787 
	C129.052582,69.948662 128.771286,70.385300 128.558075,70.967819 
	C127.292778,70.859138 126.100288,70.756706 123.703308,70.550812 
	C125.611496,77.303932 127.307007,83.304375 129.270370,90.025208 
z"/>
<path fill="#0F0F0F" opacity="1.000000" stroke="none" 
	d="
M171.999969,262.060089 
	C141.848175,262.054626 112.196365,262.050262 82.544563,262.041534 
	C81.045853,262.041107 79.290169,262.486725 78.112808,261.861237 
	C76.604332,261.059875 74.930443,259.533997 74.566864,258.022308 
	C74.365654,257.185730 76.544945,255.492111 77.935722,254.660873 
	C78.809120,254.138855 80.210182,254.469772 81.374550,254.468887 
	C132.514420,254.429520 183.654282,254.393600 234.794159,254.373962 
	C236.118393,254.373459 237.678452,254.156494 238.706924,254.759521 
	C239.976944,255.504166 241.756470,257.157288 241.596832,258.138092 
	C241.368393,259.541656 239.793686,261.090149 238.397995,261.828186 
	C237.212784,262.454895 235.466980,262.051910 233.969208,262.052490 
	C213.479462,262.060364 192.989716,262.059204 171.999969,262.060089 
z"/>
<path fill="#050505" opacity="1.000000" stroke="none" 
	d="
M181.130554,140.302887 
	C178.528915,140.301666 176.407852,140.301666 173.404175,140.301666 
	C176.664520,135.419678 179.611710,131.296631 182.245209,126.982094 
	C184.905197,122.624184 187.254211,118.076485 189.873703,113.370773 
	C203.465744,112.855034 224.148880,126.859123 228.429688,140.304123 
	C212.705536,140.304123 197.158325,140.304123 181.130554,140.302887 
z"/>
<path fill="#040504" opacity="1.000000" stroke="none" 
	d="
M138.716797,135.443008 
	C139.667267,136.998932 140.408707,138.232803 141.469116,139.997498 
	C123.273979,139.997498 105.750488,139.997498 88.179382,139.997498 
	C91.665504,127.271065 110.950478,113.943428 126.134789,113.288696 
	C130.339203,120.707420 134.423508,127.914185 138.716797,135.443008 
z"/>
<path fill="#101010" opacity="1.000000" stroke="none" 
	d="
M167.432404,125.788361 
	C166.827164,127.160889 166.362747,128.216278 165.812271,129.224686 
	C164.005539,132.534378 162.167542,135.826996 160.341553,139.126175 
	C160.761154,139.464111 161.180756,139.802032 161.600357,140.139954 
	C158.835480,140.139954 156.070602,140.139954 154.572067,140.139954 
	C151.856567,134.626022 149.473984,129.788101 147.469070,125.717064 
	C153.931244,125.345192 160.582794,124.959160 167.236572,124.616348 
	C167.321136,124.611992 167.434128,125.159683 167.432404,125.788361 
z"/>
<path fill="#D3D3D3" opacity="1.000000" stroke="none" 
	d="
M165.314117,207.271301 
	C162.831146,213.606598 160.504410,219.577805 157.736191,226.682007 
	C157.736191,217.741653 157.736191,210.120575 157.736191,202.122299 
	C155.049423,202.122299 152.297501,202.122299 149.134155,202.122299 
	C147.788193,189.160812 156.220825,179.588120 159.432678,168.461014 
	C159.432678,176.106888 159.432678,183.752777 159.432678,191.819305 
	C161.971939,191.819305 164.706009,191.819305 169.000412,191.819305 
	C167.708801,197.339813 166.589584,202.123520 165.314117,207.271301 
z"/>
<path fill="#FDFDFD" opacity="1.000000" stroke="none" 
	d="
M129.136444,89.665016 
	C127.307007,83.304375 125.611496,77.303932 123.703308,70.550812 
	C126.100288,70.756706 127.292778,70.859138 128.558075,70.967819 
	C128.771286,70.385300 129.052582,69.948662 129.077652,69.497787 
	C129.389984,63.877087 129.188614,58.177032 130.084351,52.653893 
	C130.973969,47.168594 133.150208,46.515965 138.454041,48.388042 
	C152.011414,53.173336 165.540894,55.385376 179.681778,46.398449 
	C182.719238,53.603092 185.619507,60.482353 188.611298,67.578690 
	C189.105286,67.178856 190.368927,66.156036 192.275314,64.612984 
	C191.555649,82.410103 186.887894,97.662079 172.737442,108.510231 
	C163.639221,115.485214 150.957886,115.309486 142.384262,107.336510 
	C137.162521,102.480591 133.585938,95.855576 129.136444,89.665016 
z"/>
</svg>